<svg width="35" height="35" viewBox="0 0 35 35" fill="none" xmlns="http://www.w3.org/2000/svg">
<path d="M32.7705 24.0625V19.6875H28.4437L26.259 17.5L17.4984 26.25L19.6623 28.4375C19.6623 30.7409 19.6623 32.7261 19.6623 35C20.7547 35 22.9394 35 24.0317 35C24.0317 32.8125 24.0317 30.9903 24.0317 28.4375H28.4011V35C29.4935 35 31.6782 35 32.7705 35C32.7705 32.8125 32.7705 30.9903 32.7705 28.4375L34.9552 26.25L32.7705 24.0625Z" fill="black" fill-opacity="0.62"/>
<path d="M13.1322 0H13.1301H13.129C6.21329 0.0196875 1.01807 5.20188 0.179148 11.1967C0.0677283 11.9875 2.54538e-06 12.7148 2.54538e-06 13.4291C-0.00764391 15.6155 0.673983 17.5273 2.27318 20.3525C3.87785 23.2006 6.44924 27.1141 10.4756 33.6077L10.5008 33.6481L10.5303 33.6875C11.1726 34.5472 12.1557 35 13.1202 35H13.1311H13.1421C14.1066 35 15.0897 34.5472 15.7309 33.6875L15.7593 33.6492L15.7845 33.6088C16.6649 32.1891 17.4754 30.8919 18.2226 29.7019L16.3732 28.5381C15.6381 29.7095 14.8385 30.9881 13.9723 32.3837C13.7538 32.667 13.4534 32.8016 13.1301 32.8103C12.8067 32.8016 12.5063 32.667 12.2878 32.3837C8.27783 25.9197 5.70644 21.9964 4.17715 19.2784C2.63584 16.5266 2.19235 15.1397 2.1847 13.4291C2.1847 12.8559 2.23932 12.2303 2.342 11.5008C3.04001 6.54172 7.36135 2.19188 13.1301 2.1875C18.8988 2.19188 23.2201 6.54172 23.917 11.5008C24.0197 12.2303 24.0743 12.8559 24.0743 13.4291C24.0732 14.2012 23.9793 14.8838 23.7477 15.6636L25.8406 16.2914C26.1323 15.3223 26.2601 14.3894 26.259 13.4302C26.259 12.7159 26.1913 11.9886 26.0799 11.1978C25.2409 5.20188 20.0457 0.0196875 13.1322 0Z" fill="#FFAE34"/>
<path d="M8.7814 13.125C8.78359 15.54 10.7389 17.4978 13.1508 17.5C15.5627 17.4978 17.518 15.54 17.5202 13.125C17.518 10.71 15.5627 8.75219 13.1508 8.75C10.7389 8.75219 8.78359 10.71 8.7814 13.125ZM15.3355 13.125C15.3333 14.3281 14.3524 15.3103 13.1508 15.3125C11.9492 15.3103 10.9683 14.3281 10.9661 13.125C10.9683 11.9219 11.9492 10.9397 13.1508 10.9375C14.3535 10.9397 15.3344 11.9219 15.3355 13.125Z" fill="#FFAE34"/>
</svg>
