<svg width="39" height="37" viewBox="0 0 39 37" fill="none" xmlns="http://www.w3.org/2000/svg">
<path d="M23.1295 0.0544062C23.0132 0.0918484 22.8601 0.155211 22.7928 0.195533C22.6091 0.304978 22.3856 0.544029 22.2937 0.731238C22.2202 0.878125 22.2111 0.929968 22.2111 1.21222C22.2111 1.49447 22.2202 1.54632 22.2907 1.68744C22.459 2.01866 22.7407 2.25483 23.0806 2.347C23.2122 2.38444 23.4296 2.41036 23.7112 2.42188C28.5731 2.62061 32.9604 5.33946 35.1004 9.47821C35.8566 10.9442 36.3006 12.5513 36.4016 14.216C36.4383 14.7921 36.4843 15.0225 36.6037 15.2097C36.7139 15.3911 36.9557 15.5899 37.1915 15.6935C37.3782 15.7771 37.4211 15.7857 37.7028 15.7857C37.9844 15.7857 38.0273 15.7771 38.2141 15.6935C38.5968 15.5236 38.8448 15.2327 38.9611 14.8151C39.0101 14.6423 39.0101 14.5876 38.9764 14.2535C38.958 14.0519 38.9244 13.7408 38.909 13.568C38.7284 11.6786 38.113 9.70862 37.1915 8.05255C35.9485 5.82332 34.1605 3.94259 31.9715 2.56013C29.6844 1.1143 27.2076 0.299218 24.3695 0.0601664C23.4479 -0.0175972 23.3714 -0.0204773 23.1295 0.0544062Z" fill="#FFAE34"/>
<path d="M21.7517 4.5503C21.3874 4.6367 21.0628 4.88728 20.9036 5.19833C20.7812 5.43738 20.7506 5.78876 20.8302 6.04221C20.8975 6.25822 21.0935 6.52895 21.2802 6.65856C21.5313 6.83137 21.6935 6.87457 22.2722 6.91777C22.9365 6.96961 23.3621 7.02722 23.8795 7.13666C27.7769 7.96614 30.7712 10.901 31.4846 14.5905C31.555 14.9562 31.5917 15.25 31.6529 15.9297C31.6866 16.3099 31.7693 16.5029 31.9805 16.7218C32.1795 16.9205 32.351 17.0213 32.5929 17.0818C33.3093 17.2575 34.0287 16.8283 34.1665 16.1457C34.2278 15.8404 34.1084 14.674 33.9338 13.8848C33.1562 10.3567 30.7008 7.36131 27.2595 5.7398C26.2614 5.27033 25.0582 4.89592 23.9101 4.70007C23.0774 4.55606 22.0211 4.48406 21.7517 4.5503Z" fill="#FFAE34"/>
<path d="M7.05622 4.81527C6.48676 4.87864 6.15611 4.96792 5.69075 5.18681C5.03863 5.49498 4.43243 5.92412 3.78031 6.54047C3.26596 7.02434 2.91694 7.42467 2.49444 8.02374C2.09643 8.58537 1.85763 8.97995 1.55759 9.56462C0.862605 10.9212 0.228854 12.8307 0.0910826 13.9712C0.072713 14.1296 0.0451586 14.3543 0.0298506 14.4695C-0.0099502 14.7373 -0.0099502 15.1924 0.0298506 15.4603C0.0451586 15.5755 0.072713 15.8116 0.0910826 15.9873C0.446228 19.3139 2.83428 23.6427 6.7072 27.986C7.64711 29.0401 7.80937 29.1985 8.67887 29.9243C11.5047 32.2831 14.7102 34.3108 17.435 35.457C19.1618 36.1857 20.8059 36.6379 22.1958 36.7646C22.3887 36.7848 22.6489 36.8107 22.7714 36.8251C23.0561 36.8626 23.5093 36.8626 23.794 36.8251C23.9164 36.8107 24.1552 36.7848 24.3236 36.7675C25.1809 36.6782 26.7974 36.2577 27.9547 35.8228C30.6183 34.8205 32.593 33.343 33.6003 31.6005C33.8973 31.085 34.0289 30.6155 34.0626 29.9473C34.1177 28.899 33.7962 27.7469 33.19 26.831C32.6757 26.0534 31.8705 25.3276 30.9367 24.8005C29.6539 24.0776 28.1966 23.539 26.9566 23.3259C26.5188 23.251 25.3554 23.251 24.9819 23.3259C24.1706 23.4901 23.5093 23.804 22.9643 24.285C22.7316 24.4895 22.6122 24.6306 22.0734 25.319C21.9509 25.4774 21.7029 25.7423 21.5253 25.9094C20.2701 27.0787 18.9873 27.1623 17.4167 26.1744C15.9379 25.2412 12.3528 21.857 11.3425 20.4371C11.0853 20.0771 10.8189 19.5472 10.7271 19.2131C10.623 18.8444 10.6107 18.3433 10.6965 18.0322C10.9108 17.2546 11.5139 16.5662 12.6253 15.826C13.5774 15.1953 14.1255 14.4378 14.3612 13.4384C14.6245 12.3123 14.4163 11.0018 13.7213 9.42061C13.5407 9.00587 13.008 8.02374 12.7845 7.68389C12.3742 7.06466 11.7925 6.42815 11.2659 6.02781C10.3903 5.3625 9.34323 4.94776 8.21963 4.82679C7.96245 4.80087 7.26747 4.79511 7.05622 4.81527ZM8.37271 6.77089C9.13811 6.92065 9.73206 7.23171 10.3168 7.78757C10.8006 8.25128 11.0669 8.62569 11.5353 9.50702C12.6161 11.5433 12.7355 13.1158 11.8691 13.9511C11.7803 14.0375 11.5721 14.1988 11.4068 14.3111C10.721 14.769 10.0321 15.3652 9.66776 15.8145C8.32066 17.4792 8.25943 19.3542 9.49938 21.2493C9.73512 21.6151 10.0076 21.9578 10.4454 22.4532C11.9793 24.1756 14.3306 26.3558 15.8369 27.4474C17.3952 28.5793 19.0056 28.9883 20.5028 28.6311C21.7856 28.3229 23.0163 27.4243 23.9746 26.0937C24.443 25.4399 25.037 25.1606 25.9585 25.1606C26.9076 25.1606 28.1353 25.5263 29.4671 26.2032C30.3764 26.6669 30.8938 27.0643 31.3531 27.6548C31.8552 28.297 32.1093 29.1956 32.0236 30.0078C31.9838 30.3736 31.9286 30.5435 31.748 30.8315C30.9949 32.047 29.4641 33.1616 27.4587 33.9594C26.6351 34.2877 25.1472 34.7169 24.3543 34.8522C23.9869 34.9156 22.9612 34.9415 22.4959 34.8983C19.7374 34.6449 16.3451 33.127 12.5855 30.4658C11.4802 29.6824 10.1699 28.6599 9.47794 28.0378C9.10137 27.698 8.29617 26.831 7.58894 25.9958C3.91502 21.667 1.94029 17.6348 2.05969 14.7057C2.08112 14.1613 2.16072 13.712 2.35667 13.0265C3.00879 10.7311 3.99156 8.97419 5.28355 7.79333C5.74279 7.37283 6.10712 7.1165 6.53575 6.91489C6.79292 6.79393 6.92457 6.74784 7.08684 6.72768C7.38993 6.69024 8.08185 6.71328 8.37271 6.77089Z" fill="#FFAE34"/>
<path d="M20.0833 9.1902C19.1526 9.43789 18.8403 10.5439 19.523 11.1861C19.7527 11.4021 20.0007 11.5058 20.3803 11.5404C21.559 11.6527 22.2478 11.8284 23.0806 12.2287C23.8858 12.6147 24.5195 13.0813 25.0951 13.712C25.9585 14.6538 26.531 15.875 26.6657 17.0674C26.6841 17.2344 26.7116 17.4648 26.7269 17.58C26.8004 18.1762 27.2872 18.614 27.9056 18.6457C28.57 18.6774 29.1058 18.2886 29.2405 17.6722C29.265 17.5541 29.265 17.4188 29.2405 17.1394C29.0446 14.9879 28.1016 13.0985 26.4943 11.6239C25.9891 11.1631 25.6829 10.9269 25.1655 10.6015C24.0083 9.87567 22.7591 9.42637 21.3661 9.2334C20.7905 9.15276 20.2884 9.13836 20.0833 9.1902Z" fill="#FFAE34"/>
</svg>
