<svg width="40" height="40" viewBox="0 0 40 40" fill="none" xmlns="http://www.w3.org/2000/svg">
<path d="M7.43802 0.0343475C6.36302 0.13747 5.30364 0.453098 4.35989 0.94997C3.62552 1.33747 3.02864 1.78122 2.40677 2.40622C1.01302 3.79685 0.200521 5.54997 0.0317708 7.51872C0.00677085 7.80622 0.000520852 11.4437 0.00677085 20.2656C0.0192708 33.8843 0.000520851 32.7031 0.206771 33.6187C0.891145 36.6812 3.31614 39.1093 6.38489 39.7937C7.30364 40 6.13802 39.9843 20.0005 39.9843C31.9286 39.9843 32.5661 39.9812 32.9068 39.9281C34.4755 39.6812 35.7568 39.1343 36.9161 38.2093C38.3693 37.05 39.3911 35.4218 39.7943 33.6156C40.0005 32.6968 39.9849 33.8562 39.9849 20.0312C39.9849 6.55622 39.9943 7.33122 39.8224 6.5156C39.4911 4.9281 38.7505 3.55935 37.5943 2.40622C36.3036 1.1156 34.8536 0.390598 32.9255 0.0687218C32.6349 0.0218468 31.6599 0.0155983 20.1568 0.0124702C13.3068 0.00934601 7.58489 0.0187225 7.43802 0.0343475ZM32.0693 3.12497C32.613 3.15935 33.0318 3.2406 33.4724 3.39372C35.163 3.98122 36.3943 5.38435 36.7911 7.16872L36.8599 7.48435L36.8599 20V32.5156L36.7911 32.8312C36.3943 34.6156 35.1599 36.0187 33.4724 36.6062C33.2943 36.6687 33.0068 36.75 32.8318 36.7906L32.5161 36.8593L20.0005 36.8593H7.48489L7.16927 36.7906C5.15677 36.3437 3.65677 34.8437 3.20989 32.8312L3.14114 32.5156L3.14114 20L3.14114 7.48435L3.20989 7.16872C3.56302 5.58747 4.57864 4.2906 6.00052 3.61247C6.62864 3.3156 7.17864 3.17185 7.85989 3.1281C8.41614 3.0906 31.5161 3.08747 32.0693 3.12497Z" fill="#FFAE34"/>
<path d="M31.0317 6.4406C29.8849 6.6156 29.0411 7.64059 29.1036 8.78121C29.1255 9.15933 29.1849 9.38433 29.3505 9.7187C29.5317 10.0843 29.9349 10.4906 30.3036 10.6812C30.9755 11.0281 31.7411 11.0281 32.4161 10.6843C32.7536 10.5093 33.1818 10.0874 33.3505 9.76558C33.7755 8.94683 33.6974 8.01872 33.1411 7.28747C32.6755 6.66873 31.8099 6.32185 31.0317 6.4406Z" fill="#FFAE34"/>
<path d="M19.0943 8.48748C16.2661 8.74685 13.7974 9.8906 11.8442 11.8437C10.5567 13.1312 9.61924 14.6469 9.05049 16.3593C8.64736 17.575 8.46924 18.6906 8.46924 20C8.46924 21.0125 8.57236 21.8656 8.80049 22.7812C9.99737 27.5718 14.0724 31.0531 19.0005 31.5C19.463 31.5406 20.538 31.5406 21.0005 31.5C26.0568 31.0406 30.1911 27.3937 31.2786 22.4375C31.6255 20.85 31.6193 19.125 31.263 17.5C30.5349 14.1875 28.363 11.3531 25.338 9.76873C24.1536 9.14685 22.8724 8.74685 21.438 8.54373C21.0911 8.49686 19.4411 8.45623 19.0943 8.48748ZM21.0661 11.6406C22.6161 11.8437 24.0599 12.4562 25.2818 13.425C25.6224 13.6968 26.3036 14.3781 26.5755 14.7187C27.5599 15.9593 28.1818 17.45 28.3786 19.0468C28.4286 19.45 28.4286 20.55 28.3786 20.9531C28.2536 21.9593 27.9974 22.8218 27.5474 23.7343C26.5568 25.7406 24.8036 27.2812 22.7005 27.9843C20.2286 28.8093 17.5255 28.4656 15.3755 27.0468C14.688 26.5937 13.9192 25.8968 13.4255 25.2812C12.4692 24.0843 11.8692 22.675 11.638 21.0781C11.5536 20.5125 11.563 19.4125 11.6536 18.8125C11.7911 17.9031 12.0192 17.1562 12.4192 16.3281C12.8536 15.4281 13.3286 14.7625 14.0474 14.0469C14.7317 13.3625 15.3536 12.9094 16.188 12.4875C17.2161 11.9656 18.2161 11.6906 19.4693 11.5812C19.7443 11.5562 20.7099 11.5937 21.0661 11.6406Z" fill="#FFAE34"/>
</svg>
