<svg width="40" height="26" viewBox="0 0 40 26" fill="none" xmlns="http://www.w3.org/2000/svg">
<path d="M2.57772 0.0711536C2.44407 0.10775 2.26183 0.177891 2.17071 0.226683C1.96417 0.342567 1.70903 0.595684 1.5845 0.815256C1.53287 0.909794 1.40834 1.06837 1.3081 1.16901C1.10156 1.37638 0.973993 1.6173 0.891985 1.94361C0.834275 2.17233 0.831238 2.398 0.831238 12.8612V23.5409L0.895022 23.7787C0.986143 24.1233 1.09549 24.3216 1.31721 24.5472C1.54502 24.7729 1.74852 24.8857 2.09478 24.9742C2.33169 25.0352 2.44711 25.0352 20.0061 25.0352H37.6804L37.9265 24.9711C38.0631 24.9376 38.2545 24.8644 38.3517 24.8125C38.5704 24.6967 38.8255 24.4435 38.9561 24.2179C39.0078 24.1233 39.1323 23.9647 39.2325 23.8641C39.4391 23.6567 39.5666 23.4158 39.6486 23.0895C39.7063 22.8608 39.7094 22.6351 39.7094 12.172V1.49227L39.6456 1.2544C39.5545 0.909794 39.4451 0.711569 39.2234 0.485899C38.9956 0.260229 38.7921 0.147394 38.4458 0.0589561C38.2059 -0.00203705 38.0965 -0.00203705 20.5133 0.0010128H2.82071L2.57772 0.0711536ZM34.8648 2.19062C34.7798 2.27296 20.6348 10.8911 20.5589 10.9064C20.5194 10.9155 18.3416 9.60419 13.9071 6.90225C5.75175 1.93446 6.19521 2.20587 6.18306 2.16623C6.17394 2.14183 10.0709 2.13268 20.5467 2.13268C34.7038 2.13268 34.9225 2.13268 34.8648 2.19062ZM37.7351 12.3336C37.7351 18.4938 37.726 21.8331 37.7047 21.8331C37.6895 21.8331 36.8178 21.0554 35.7699 20.104C34.719 19.1525 31.9125 16.6061 29.5282 14.4439C27.1408 12.2817 25.1908 10.5038 25.1908 10.4886C25.1908 10.4764 25.209 10.452 25.2303 10.4337C25.2485 10.4184 27.727 8.90279 30.734 7.07303C33.741 5.24022 36.5293 3.53855 36.9302 3.29153C37.3311 3.04146 37.6774 2.84019 37.6987 2.83714C37.726 2.83409 37.7351 4.75229 37.7351 12.3336ZM8.88023 6.82906C12.1636 8.8296 15.0096 10.5648 15.204 10.6838C15.4014 10.8027 15.5624 10.9155 15.5624 10.9369C15.5624 10.9796 2.87842 22.504 2.83285 22.504C2.81767 22.504 2.80552 18.6828 2.80552 12.8337C2.80552 3.63918 2.80856 3.16345 2.86019 3.17564C2.88753 3.18479 5.59685 4.82853 8.88023 6.82906ZM31.1775 16.7555C37.3372 22.3363 37.7199 22.69 37.729 22.7937C37.7381 22.8943 37.7321 22.9004 37.6531 22.9004C37.5863 22.9004 37.4526 22.7937 37.0213 22.4034C36.7206 22.1289 33.7744 19.4574 30.4758 16.4688C27.1773 13.4802 24.4649 11.0131 24.4467 10.9887C24.4254 10.9552 24.4345 10.9277 24.4892 10.882C24.5287 10.8515 24.5773 10.824 24.5985 10.824C24.6198 10.824 27.5812 13.4924 31.1775 16.7555ZM25.1027 12.4098C30.2298 17.0574 33.4737 19.9972 34.9195 21.3085C35.8489 22.1533 36.6113 22.8577 36.6113 22.873C36.6113 22.8882 30.324 22.9004 20.1033 22.9004C11.0246 22.9004 3.59523 22.8882 3.59523 22.876C3.59523 22.8608 3.92023 22.5558 4.31508 22.196C4.70994 21.8361 7.55594 19.2531 10.6389 16.4566C14.9124 12.5776 16.258 11.3699 16.3066 11.3791C16.34 11.3882 17.0446 11.806 17.8708 12.3092C18.697 12.8124 19.4229 13.2485 19.4806 13.282C19.6142 13.3521 20.1701 13.3796 20.3857 13.3247C20.4738 13.3034 20.9142 13.0563 21.5612 12.6599C22.1292 12.3153 22.8733 11.8639 23.2105 11.6566C23.6023 11.4187 23.8453 11.2906 23.8696 11.3059C23.8908 11.3181 24.4467 11.8152 25.1027 12.4098Z" fill="#FFAE34"/>
</svg>
