<svg width="40" height="40" viewBox="0 0 40 40" fill="none" xmlns="http://www.w3.org/2000/svg">
<g clip-path="url(#clip0_7_61)">
<path d="M20.0005 40C31.0462 40 40.0005 31.0456 40.0005 20C40.0005 8.95429 31.0462 -3.05176e-05 20.0005 -3.05176e-05C8.95481 -3.05176e-05 0.000488281 8.95429 0.000488281 20C0.000488281 31.0456 8.95481 40 20.0005 40Z" fill="#FFAE34"/>
<path d="M8.32419 19.8265C8.32419 19.8265 18.3242 15.7225 21.7923 14.2774C23.1219 13.6994 27.6305 11.8496 27.6305 11.8496C27.6305 11.8496 29.7115 11.0404 29.538 13.0057C29.4802 13.815 29.0178 16.6473 28.5554 19.7109C27.8617 24.0462 27.1103 28.786 27.1103 28.786C27.1103 28.786 26.9947 30.1156 26.012 30.3468C25.0294 30.578 23.4108 29.5376 23.1219 29.3063C22.8906 29.1329 18.7866 26.5317 17.2837 25.26C16.8791 24.9132 16.4167 24.2196 17.3415 23.4104C19.4224 21.5028 21.9079 19.1329 23.4108 17.63C24.1045 16.9364 24.7981 15.3179 21.9079 17.2832C17.8039 20.1156 13.7577 22.7745 13.7577 22.7745C13.7577 22.7745 12.8328 23.3525 11.0987 22.8323C9.36459 22.3121 7.34147 21.6184 7.34147 21.6184C7.34147 21.6184 5.95427 20.7514 8.32419 19.8265Z" fill="white"/>
</g>
<defs>
<clipPath id="clip0_7_61">
<rect width="40" height="40" fill="white" transform="translate(0.000488281)"/>
</clipPath>
</defs>
</svg>
