<svg width="75" height="63" viewBox="0 0 75 63" fill="none" xmlns="http://www.w3.org/2000/svg">
<path d="M7.10488 0.127991C6.84108 0.413071 6.79419 0.808685 6.95246 1.55919C7.19281 2.72277 8.34765 5.23028 9.42628 6.92328L9.62559 7.24327L9.438 7.06873C9.18007 6.82438 8.79903 6.29495 7.09902 3.78744C4.87141 0.500336 4.64865 0.261803 4.17969 0.663239C4.02727 0.791233 4.01555 0.837776 4.02141 1.2043C4.03313 2.12934 5.05314 4.28196 6.40729 6.25423C6.61832 6.55676 6.76488 6.78947 6.72384 6.7662C6.68281 6.74293 6.23142 6.32404 5.71556 5.83534C4.64279 4.82885 4.13279 4.40414 3.76934 4.2296C3.45278 4.07834 3.36485 4.11906 3.16554 4.51468C3.03657 4.76485 3.01899 4.86957 3.02485 5.38154C3.02485 5.82952 3.05416 6.0506 3.15968 6.3415C3.54658 7.42944 4.27348 8.5232 5.66866 10.1231C6.02039 10.5187 5.89142 10.4489 4.94762 9.71587C3.85141 8.86646 3.27106 8.57556 2.9545 8.71519C2.51485 8.91882 2.53829 9.97186 3.00726 10.8445C3.34727 11.4787 4.42003 12.3979 5.09417 12.6306C5.43418 12.747 5.24073 12.747 4.77176 12.6306C4.12693 12.4735 3.37658 12.3688 3.09519 12.4095C2.43278 12.4968 2.35657 13.2124 2.88416 14.312C3.08347 14.7251 3.21244 14.8938 3.68727 15.3592C4.6721 16.3308 6.03211 17.2733 7.12247 17.7329L7.59143 17.9249L7.29833 17.8958C7.14005 17.8725 6.66522 17.7387 6.24315 17.5933C4.889 17.1162 4.40831 16.9882 4.00968 16.9882C3.69899 16.9882 3.61692 17.0115 3.46451 17.1395C2.94278 17.5758 3.15968 18.2682 4.13865 19.2397C4.89486 19.9903 6.25487 20.9211 7.18695 21.3226C7.63247 21.5145 7.64419 21.5262 7.42143 21.5262C7.29833 21.5262 6.75901 21.4855 6.2197 21.4331C5.66866 21.3807 5.08245 21.3575 4.86555 21.3749C4.39658 21.4215 4.00968 21.6018 3.8983 21.8229C3.78692 22.0323 3.78692 22.5385 3.8983 22.8701C4.15624 23.6148 5.13521 24.3886 6.47177 24.9064L6.88212 25.0635L6.53039 25.0984C5.31694 25.2322 4.26762 25.4823 3.95693 25.7267C3.81037 25.8372 3.79865 25.878 3.8221 26.163C3.87486 26.7681 4.5021 27.4371 5.51038 27.9491C6.46591 28.4378 8.01351 28.8858 9.26214 29.0312C9.56697 29.072 9.84835 29.1069 9.88352 29.1185C9.93042 29.1302 9.91283 29.3105 9.83662 29.7119C9.68421 30.4915 9.62559 31.5853 9.67835 32.4929C9.95973 37.0308 12.9846 41.5281 18.5536 45.682C19.8901 46.6769 21.9243 47.9685 23.0264 48.5153C23.2902 48.6492 23.5071 48.7655 23.5071 48.783C23.5071 48.8004 22.9326 49.1902 22.235 49.6498C20.5584 50.7436 19.2805 51.6396 17.557 52.9137C16.7832 53.4896 15.9449 54.0889 15.6987 54.2576C14.0456 55.3514 12.0525 55.9506 7.82592 56.608C3.75175 57.2422 2.57933 57.4807 1.43036 57.9171C0.498279 58.2778 0.00586211 58.7257 0 59.2319C0 59.4472 0.52759 60.5467 0.896903 61.0878C1.7645 62.3794 3.13037 62.903 5.8328 62.9902C7.46247 63.0426 9.22696 62.8855 11.5366 62.4841C13.7642 62.0943 15.4877 61.7103 20.576 60.4478C24.8729 59.3832 25.8402 59.197 28.1088 58.9643C30.0609 58.7723 30.864 58.7432 35.9641 58.7025C41.7265 58.6559 41.3513 58.6792 43.0865 58.2952C45.361 57.7949 48.6907 56.5615 51.3638 55.235C53.1283 54.3565 54.2187 53.6875 55.3969 52.7508C56.5576 51.8257 57.1908 51.4592 58.9259 50.7261C60.4091 50.1036 60.7725 49.8884 62.7129 48.4979C63.6567 47.823 64.7763 47.0841 65.5677 46.6071C65.9781 46.3569 65.9781 46.3569 66.4177 46.3918C67.5608 46.4849 68.0415 46.7583 69.507 48.1372L70.1636 48.7597L70.2105 48.4804C70.275 48.0674 70.2574 46.8107 70.1812 46.3104C70.1402 46.0718 70.0522 45.6529 69.9877 45.3853C69.8822 44.9664 69.8705 44.8501 69.9291 44.5766C70.0229 44.1228 70.0112 43.1571 69.9057 42.552C69.6243 40.9288 68.8564 39.7362 67.7543 39.2067C66.8281 38.7704 65.3215 38.4795 64.2487 38.5319C63.0236 38.59 62.068 38.9449 60.6553 39.8642C59.7759 40.4343 58.5097 40.731 56.2939 40.8881L55.6373 40.9288L55.6021 40.7252C55.5494 40.4052 55.6783 39.5442 55.8483 39.0904C56.1239 38.3515 56.3701 38.0141 58.5977 35.3727C60.2273 33.4296 60.6963 32.9292 63.9263 29.6421C67.3557 26.1456 68.4284 25.0053 69.765 23.417C72.2271 20.4848 73.6047 18.0529 74.3667 15.301C74.8357 13.6022 75.0057 12.2583 74.9998 10.2686C74.994 9.01772 74.9705 8.54066 74.8416 7.50507C74.7595 6.81856 74.6599 5.84697 74.6247 5.35246C74.4488 2.89149 74.1557 2.03626 73.4933 2.03626C72.8719 2.03626 71.6233 3.36274 71.2071 4.47977C70.9784 5.08483 70.4215 7.8076 70.0464 10.2046C69.9408 10.8678 69.8471 11.3914 69.8353 11.3681C69.8295 11.3391 69.7943 10.8969 69.7591 10.3907C69.724 9.87877 69.6067 8.6512 69.4953 7.65634C69.2667 5.64917 69.2315 4.34014 69.3605 2.90313C69.4719 1.6581 69.4602 1.06467 69.3136 0.785412C69.1377 0.442158 68.786 0.273441 68.3112 0.308346C67.8481 0.343254 67.4846 0.517792 67.1212 0.884319C66.6639 1.34393 66.3356 2.03626 65.8608 3.56055C65.515 4.6834 65.4856 4.91029 65.3919 7.44689C65.3156 9.52388 65.2218 10.6351 65.1105 10.7456C65.046 10.8096 64.876 9.84386 64.7177 8.44757C64.5243 6.79529 64.4246 6.17278 64.2487 5.51535C63.9263 4.2936 63.4339 3.78162 62.7422 3.95034C61.4584 4.26451 60.7608 5.89933 60.8722 8.34285C60.9191 9.29698 61.0011 9.86713 61.3177 11.4263C61.4467 12.0663 61.5404 12.5957 61.5287 12.6074C61.4525 12.6888 60.9191 11.5427 60.4091 10.2104C59.987 9.11081 59.8873 8.88391 59.647 8.52902C59.1721 7.81342 58.5508 7.81342 57.7594 8.51738C57.4018 8.83737 57.2318 9.19808 57.1556 9.81477C57.0911 10.286 57.1028 10.5071 57.2494 11.6649C57.4018 12.8808 57.6715 14.0211 58.0994 15.2254C58.1932 15.4872 58.2694 15.7199 58.2694 15.749C58.2694 15.7723 58.1287 15.5454 57.9587 15.2429C57.2201 13.9164 56.6573 13.3055 56.0359 13.1426C55.3325 12.9564 54.6583 13.5615 54.3945 14.6029C54.2714 15.08 54.289 17.0639 54.4238 17.9191C54.5294 18.5881 54.8342 20.159 54.8987 20.3684C54.969 20.5779 54.8752 20.479 54.6935 20.1415C54.248 19.3037 53.1811 18.1402 52.6593 17.9075C52.29 17.7446 52.1083 17.8027 51.6745 18.2391C50.8186 19.0827 50.4669 20.4499 50.6486 22.2011C50.6838 22.5792 50.8186 23.417 50.9417 24.057C51.188 25.3369 51.2349 25.6569 51.1645 25.6569C51.1411 25.6569 50.9886 25.3893 50.8304 25.0576C50.5138 24.4118 50.4552 24.3362 50.2383 24.185C50.0448 24.0511 49.57 24.057 49.2535 24.2024C48.3272 24.6213 47.2134 26.3667 45.6658 29.8167C45.3376 30.5497 44.6576 31.9926 44.1534 33.0165C43.6551 34.0404 43.0924 35.2273 42.9107 35.6462L42.5765 36.42L41.0289 34.5408C38.2913 31.2188 37.4003 30.2065 35.9054 28.6938C34.0061 26.7623 32.1771 25.3194 25.1485 20.1881C21.3205 17.3955 19.9605 16.3134 18.7001 15.0683C17.2815 13.672 16.2087 12.1594 15.177 10.1231C14.0925 7.97632 13.3656 5.86443 13.1018 4.12488C12.8556 2.46096 12.6973 1.77446 12.498 1.55338C12.3691 1.41375 11.9353 1.41956 11.7242 1.57083C11.4428 1.76863 11.3432 2.13516 11.349 2.96712C11.3549 4.34014 11.7301 5.89352 12.8087 9.04681C12.8322 9.11081 12.5566 8.61047 12.2049 7.92978C9.70766 3.15911 7.75557 0 7.29247 0C7.25729 0 7.17522 0.0581779 7.10488 0.127991Z" fill="black"/>
</svg>
